HIERARCHY
ROOT Hips
{
	OFFSET -0.179506 -22.333345 2.821913
	CHANNELS 6 Xposition Yposition Zposition Zrotation Yrotation Xrotation 
	JOINT LeftUpLeg
	{
		OFFSET 6.951974 -9.140623 -0.681533
		CHANNELS 3 Zrotation Yrotation Xrotation
		JOINT LeftLeg
		{
			OFFSET 3.427654 -37.519855 -0.449580
			CHANNELS 3 Zrotation Yrotation Xrotation
			JOINT LeftFoot
			{
				OFFSET -1.359570 -39.796059 -4.369333
				CHANNELS 3 Zrotation Yrotation Xrotation
				JOINT LeftToe
				{
					OFFSET 2.635814 -5.579078 11.928840
					CHANNELS 3 Zrotation Yrotation Xrotation
					End Site
					{
						OFFSET 0.000000 0.000000 0.000000
					}
				}
			}
		}
	}
	JOINT RightUpLeg
	{
		OFFSET -6.767048 -9.052170 -0.431982
		CHANNELS 3 Zrotation Yrotation Xrotation
		JOINT RightLeg
		{
			OFFSET -3.829005 -38.256897 -0.885003
			CHANNELS 3 Zrotation Yrotation Xrotation
			JOINT RightFoot
			{
				OFFSET 1.577377 -39.841461 -4.231180
				CHANNELS 3 Zrotation Yrotation Xrotation
				JOINT RightToe
				{
					OFFSET -2.537174 -4.814398 12.334795
					CHANNELS 3 Zrotation Yrotation Xrotation
					End Site
					{
						OFFSET 0.000000 0.000000 0.000000
					}
				}
			}
		}
	}
	JOINT Spine
	{
		OFFSET -0.253288 10.896323 -2.669631
		CHANNELS 3 Zrotation Yrotation Xrotation
		JOINT Spine1
		{
			OFFSET 0.548704 13.518043 0.109247
			CHANNELS 3 Zrotation Yrotation Xrotation
			JOINT Spine2
			{
				OFFSET 0.145701 5.292222 2.542457
				CHANNELS 3 Zrotation Yrotation Xrotation
				JOINT Neck
				{
					OFFSET -0.277840 21.387037 -4.285703
					CHANNELS 3 Zrotation Yrotation Xrotation
					JOINT Head
					{
						OFFSET 0.515184 6.496960 5.134897
						CHANNELS 3 Zrotation Yrotation Xrotation
						End Site
						{
							OFFSET 0.000000 0.000000 0.000000
						}
					}
				}
				JOINT LeftShoulder
				{
					OFFSET 7.884473 12.174932 -3.408961
					CHANNELS 3 Zrotation Yrotation Xrotation
					JOINT LeftArm
					{
						OFFSET 9.097692 3.046888 -0.886815
						CHANNELS 3 Zrotation Yrotation Xrotation
						JOINT LeftForeArm
						{
							OFFSET 25.961220 -1.277207 -2.745643
							CHANNELS 3 Zrotation Yrotation Xrotation
							JOINT LeftHand
							{
								OFFSET 24.923361 0.898606 -0.117091
								CHANNELS 3 Zrotation Yrotation Xrotation
								End Site
								{
									OFFSET 0.000000 0.000000 0.000000
								}
							}
						}
					}
				}
				JOINT RightShoulder
				{
					OFFSET -8.175920 11.883285 -3.861528
					CHANNELS 3 Zrotation Yrotation Xrotation
					JOINT RightArm
					{
						OFFSET -9.601238 3.255117 -0.914307
						CHANNELS 3 Zrotation Yrotation Xrotation
						JOINT RightForeArm
						{
							OFFSET -25.374195 -1.332924 -2.140099
							CHANNELS 3 Zrotation Yrotation Xrotation
							JOINT RightHand
							{
								OFFSET -25.529810 0.777228 -0.555919
								CHANNELS 3 Zrotation Yrotation Xrotation
								End Site
								{
									OFFSET 0.000000 0.000000 0.000000
								}
							}
						}
					}
				}
			}
		}
	}
}
MOTION
Frames: 10
Frame Time: 0.033333
-36.276642 16.147701 94.007027 177.840895 1.408120 89.422481 0.128127 3.390574 7.347536 2.249046 -1.396403 -7.073149 0.353359 10.937114 -2.755785 nan nan nan 1.366295 -3.087982 4.477928 0.823774 -1.384209 -6.618052 5.125503 -5.962855 -2.750205 nan nan nan 0.615146 2.036800 4.603027 1.543358 -3.189026 3.865919 1.126630 0.081018 -3.130033 -3.056588 -0.808461 2.018823 3.520238 -2.074400 -7.798607 -23.002944 -1.591797 0.345145 -59.882008 -4.831357 14.432656 6.085398 -20.370428 2.017134 -9.275948 -11.227490 0.885084 23.460797 7.116402 1.852491 59.081334 5.017795 14.891200 -6.446175 20.373597 0.261756 8.846416 9.510222 -0.850236 
-36.273853 16.169003 93.972122 177.837461 1.373723 89.404536 0.109224 3.435458 7.445928 2.210407 -1.403338 -7.309095 0.378877 10.962612 -2.796484 nan nan nan 1.269706 -3.164487 4.434765 0.862533 -1.512770 -6.528941 5.177703 -6.054276 -2.657497 nan nan nan 0.708688 1.999197 4.623530 1.440966 -3.173808 3.760683 1.041487 0.074789 -2.987134 -3.042472 -0.820370 2.002600 3.504130 -2.028772 -7.860703 -22.952560 -1.551223 0.371501 -59.857750 -4.864004 14.335340 6.042591 -20.425139 2.053389 -9.221779 -11.143654 0.748329 23.286853 7.134365 1.864380 59.217497 5.071312 14.937048 -6.356755 20.501775 0.409691 8.797150 9.447602 -0.997230 
-36.265919 16.169813 93.950378 177.853205 1.343184 89.447053 0.098793 3.437315 7.387512 2.189542 -1.417145 -7.332363 0.395696 10.967566 -2.804806 nan nan nan 1.227702 -3.170205 4.335071 0.859004 -1.540058 -6.458854 5.220400 -6.082976 -2.588842 nan nan nan 0.722238 1.991791 4.633891 1.406550 -3.168277 3.695721 1.011027 0.081474 -2.958618 -3.027204 -0.827617 1.964276 3.514919 -1.993495 -7.878579 -22.918415 -1.559228 0.356166 -59.859369 -4.889374 14.349163 5.983134 -20.324507 2.042203 -9.178559 -11.094263 0.695583 23.218780 7.145831 1.852441 59.285419 5.107512 14.958761 -6.343086 20.462528 0.388741 8.761815 9.421194 -1.086458 
-36.387733 16.212418 93.933701 178.500702 1.363133 89.572735 0.011941 3.249555 7.163154 2.352334 -1.617651 -7.248161 0.309574 10.794101 -2.693676 nan nan nan 1.077642 -3.404434 4.502138 1.011309 -1.702838 -6.816475 5.358089 -6.226332 -2.498405 nan nan nan 0.997845 1.941209 4.505284 1.381776 -3.440379 3.458828 0.941356 -0.139782 -2.799906 -3.123776 -0.952426 2.116376 3.515916 -2.000651 -8.048599 -22.877138 -1.509473 0.357175 -60.122515 -4.987114 14.356676 5.921445 -20.049173 2.029926 -9.145039 -11.076240 0.414958 22.958206 6.833162 1.667958 59.449334 5.028736 14.917887 -6.292681 20.501757 0.526090 8.700858 9.359677 -1.125478 
-36.413811 16.201529 93.908043 178.690387 1.372945 89.622365 -0.030009 3.271967 7.041075 2.501653 -1.621299 -7.180572 0.312600 10.759854 -2.680824 nan nan nan 1.050824 -3.479644 4.549023 1.040715 -1.795124 -6.960932 5.518416 -6.243194 -2.522674 nan nan nan 1.049935 1.932565 4.461011 1.424189 -3.548032 3.451532 0.978660 -0.161932 -2.795710 -3.328029 -1.308464 2.888167 3.444416 -2.072417 -8.492754 -22.582963 -1.519925 0.273889 -60.590495 -5.089037 14.445909 5.791745 -19.673089 1.656405 -9.057209 -10.997631 -0.010273 22.511085 6.740920 1.546072 59.895133 5.013319 14.846604 -6.259780 20.497144 0.190865 8.647795 9.426847 -1.543841 
-36.453136 16.190731 93.838486 178.471462 1.128846 89.403562 -0.699536 2.475924 7.651635 3.270715 -2.723348 -8.103499 1.474429 11.147570 -7.358669 nan nan nan 0.753681 -3.473676 4.635687 0.918782 -1.665004 -6.823756 6.436001 -6.254092 -2.742779 nan nan nan 0.578876 2.503843 4.334717 1.636749 -3.478219 4.582067 1.196781 -0.217134 -3.119418 -3.668492 -1.714981 3.348541 3.690129 -2.001753 -9.834799 -21.791865 -1.955156 -0.159632 -61.799936 -5.505816 14.691274 5.184732 -18.872313 0.192040 -8.456597 -11.452494 -1.428117 21.484796 6.638698 1.144170 61.320448 4.919822 14.234918 -6.536398 20.375265 -2.681944 7.857075 10.790267 -4.278085 
-36.447872 16.214676 93.788589 178.372303 1.216076 89.212644 -0.818144 2.166467 7.891435 3.477536 -2.496271 -8.160126 1.944963 11.337769 -7.316572 nan nan nan 0.894499 -3.288744 4.858745 0.864291 -1.923887 -6.915983 6.584595 -6.177455 -2.653541 nan nan nan 0.733409 2.674367 4.857327 1.502188 -3.540854 3.978166 1.326022 -0.126684 -2.897919 -4.210812 -2.374560 4.064227 4.151225 -1.382029 -10.545566 -21.139341 -2.023683 -0.207223 -62.899552 -5.743096 15.037430 4.936840 -18.044790 -1.710442 -9.822887 -12.365971 -5.175033 20.165551 6.610690 0.552836 63.077176 5.072313 13.394940 -8.088110 19.751750 -9.106017 10.781570 13.558728 -13.838921 
-36.441925 16.219957 93.779816 178.411479 1.287177 89.210183 -0.746138 2.192389 7.839553 3.500561 -2.532166 -8.127465 1.910790 11.335703 -7.185770 nan nan nan 1.010723 -3.264317 4.837208 0.823503 -1.978570 -6.902164 6.575542 -6.264555 -2.641197 nan nan nan 0.801396 2.635315 4.889748 1.463152 -3.514757 3.824320 1.347651 -0.112922 -2.780529 -4.224757 -2.446902 4.231140 4.184555 -1.356579 -10.701623 -21.101820 -2.008749 -0.146277 -63.112181 -5.741243 15.025370 5.337853 -18.063841 -1.996747 -9.954203 -12.513771 -5.594617 20.038258 6.625079 0.498041 63.268878 4.983431 13.428375 -8.055229 19.862472 -9.248026 10.979996 13.530309 -14.605257 
-36.464043 16.203264 93.776665 178.540138 1.236821 89.261022 -1.042423 1.653680 7.783610 3.833816 -2.266808 -8.170671 1.844924 11.450115 -6.972891 nan nan nan 0.925214 -2.935336 4.890191 0.942165 -2.299742 -7.145598 6.917012 -6.491431 -2.655335 nan nan nan 0.745394 2.762822 4.676751 1.478182 -3.567071 3.913550 1.331019 -0.239753 -2.506110 -4.393169 -2.081155 4.485217 4.634282 -1.785633 -11.529080 -21.054978 -2.006787 -0.098095 -63.252874 -6.771000 14.065501 3.113355 -16.196143 -2.962258 -15.618555 -16.253860 -7.800919 19.798282 6.627002 -0.030999 63.543845 4.806202 13.343588 -8.165993 19.601700 -9.604303 13.575327 15.080815 -15.281236 
-36.470673 16.176699 93.786369 178.603794 1.212336 89.352057 -1.121434 1.495062 7.625475 3.787985 -2.350803 -8.077390 2.022709 11.515382 -7.036371 nan nan nan 0.913343 -2.899678 4.778919 0.938944 -2.295611 -7.158477 7.108026 -6.560131 -2.699884 nan nan nan 0.676870 2.828465 4.693892 1.487176 -3.558026 3.756343 1.391396 -0.274877 -2.447653 -4.485573 -2.231636 4.616693 4.753779 -1.739403 -11.775456 -20.838139 -1.921290 -0.253303 -63.647519 -6.714392 14.262988 3.555030 -16.032256 -2.912446 -15.315427 -16.521827 -7.753884 19.694991 6.394512 -0.258489 63.629923 4.662516 13.329066 -8.193928 19.666699 -9.361636 13.718761 15.276955 -15.058327 
